<svg width="24" height="24" viewBox="0 0 24 24" fill="none" xmlns="http://www.w3.org/2000/svg">
<path d="M16.9949 3H7.00509C4.24522 3 2 5.2277 2 7.96604V17.034C2 19.7723 4.24522 22 7.00509 22H16.9949C19.7548 22 22 19.7723 22 17.034V7.96604C22 5.2277 19.7548 3 16.9949 3ZM3.76564 7.96604C3.76564 6.19398 5.21909 4.75186 7.00509 4.75186H16.9949C18.7809 4.75186 20.2344 6.19398 20.2344 7.96604V17.034C20.2344 18.806 18.7809 20.2481 16.9949 20.2481H7.00509C5.21909 20.2481 3.76564 18.806 3.76564 17.034V7.96604Z" fill="#1A1A1A"/>
<path d="M12.0001 17.1181C14.5665 17.1181 16.6556 15.0464 16.6556 12.4988C16.6556 9.95128 14.5677 7.87958 12.0001 7.87958C9.43249 7.87958 7.34448 9.95128 7.34448 12.4988C7.34448 15.0464 9.43249 17.1181 12.0001 17.1181ZM12.0001 9.63256C13.5938 9.63256 14.89 10.9187 14.89 12.5C14.89 14.0812 13.5938 15.3673 12.0001 15.3673C10.4064 15.3673 9.11012 14.0812 9.11012 12.5C9.11012 10.9187 10.4064 9.63256 12.0001 9.63256Z" fill="#1A1A1A"/>
<path d="M17.0864 8.62589C17.7775 8.62589 18.3408 8.06811 18.3408 7.38129C18.3408 6.69446 17.7786 6.13669 17.0864 6.13669C16.3942 6.13669 15.832 6.69446 15.832 7.38129C15.832 8.06811 16.3942 8.62589 17.0864 8.62589Z" fill="#1A1A1A"/>
</svg>
