<svg width="75" height="33" viewBox="0 0 75 33" fill="none" xmlns="http://www.w3.org/2000/svg">
<path fill-rule="evenodd" clip-rule="evenodd" d="M64.0367 0.524686V13.4011C64.0367 13.6913 64.1233 13.78 64.4106 13.78H73.6298C73.6298 12.7869 73.764 12.3907 73.2559 12.3907H65.6562V7.97285C65.6562 7.84655 65.3602 7.46763 66.1548 7.46763H72.508V6.20554H65.6562V1.53417H73.2559C73.6536 -0.196509 73.1436 0.14577 72.7573 0.14577H64.6599C64.4458 0.14577 64.0367 -0.119375 64.0367 0.524686Z" fill="#1A1A1A"/>
<path fill-rule="evenodd" clip-rule="evenodd" d="M42.3584 8.09818H38.6209V1.53415C41.8056 1.53415 45.8647 0.873697 46.0588 4.71493C46.1711 6.9354 44.5345 8.09818 42.3584 8.09818ZM37.0014 0.524668V13.78H38.6209V9.48754C41.2271 9.48754 44.2662 9.93684 46.1274 8.25727C46.5936 7.83593 46.7534 7.61803 47.0741 7.07038C47.8039 5.82468 47.7573 3.91949 47.115 2.64776C46.3519 1.13884 44.5421 0.145752 42.857 0.145752H37.3754C37.088 0.145752 37.0014 0.23349 37.0014 0.524668Z" fill="#1A1A1A"/>
<path fill-rule="evenodd" clip-rule="evenodd" d="M24.294 0.397418V13.78H33.5132C34.1535 13.78 33.8452 12.7503 33.7625 12.3907H25.7888V7.84655C25.7888 7.55537 25.8754 7.46764 26.1627 7.46764H32.6416V6.20555H26.1627C25.8754 6.20555 25.7888 6.11781 25.7888 5.82663V1.53417H33.1392C33.7025 1.53417 33.5132 0.74934 33.5132 0.145773H24.7926C24.4881 0.145773 24.294 -0.1348 24.294 0.397418Z" fill="#1A1A1A"/>
<path fill-rule="evenodd" clip-rule="evenodd" d="M55.6891 8.09818H52.0762V1.53415C55.2267 1.53415 59.5513 0.841879 59.5513 4.81616C59.5513 7.14076 57.9955 8.09818 55.6891 8.09818ZM50.5814 13.78H52.0762C52.0762 8.89265 51.7327 9.46343 53.3198 9.48464C54.964 9.50778 56.6625 9.60324 58.007 9.18479C59.6474 8.67282 61.0461 7.21404 61.0461 5.44769C61.0461 3.32364 60.9176 2.28427 59.0907 0.990361C58.4323 0.524669 57.1963 0.145752 56.5616 0.145752H50.5814V13.78Z" fill="#1A1A1A"/>
<path fill-rule="evenodd" clip-rule="evenodd" d="M8.96989 9.99181V10.497C8.96989 11.5981 7.47222 12.517 6.35324 12.517C4.79657 12.517 3.28842 12.5603 1.86782 11.5084C1.55382 11.2761 1.45296 11.1102 0.996233 11.0022L0.493835 12.0098C1.88494 14.1069 7.9318 14.8898 9.88335 12.1805C10.5875 11.2018 10.4647 10.5954 10.4647 9.48755C10.4647 7.80894 8.09165 6.86791 6.6777 6.50732C5.78804 6.28074 4.87935 6.06669 4.04392 5.76877C1.09614 4.7159 2.34928 1.40785 4.98306 1.40785C8.72441 1.40785 7.80239 2.02492 9.46849 2.41733C9.67116 2.02974 9.78249 1.6701 9.96613 1.28155C9.64071 1.06075 9.72254 1.03954 9.29436 0.82646C6.39606 -0.615929 1.71177 -0.305467 0.911547 2.83771C0.0818296 6.09851 2.95254 7.1292 5.59584 7.72988C6.71672 7.98442 8.96989 8.55424 8.96989 9.99181Z" fill="#1A1A1A"/>
<path fill-rule="evenodd" clip-rule="evenodd" d="M0 19.4609H75V18.9557H0V19.4609Z" fill="#1A1A1A"/>
<path fill-rule="evenodd" clip-rule="evenodd" d="M11.2126 0.145773C11.2126 1.91791 10.4581 1.53417 15.9464 1.53417V13.78H17.4422V1.40786C17.9493 1.65469 20.1083 1.52646 21.0617 1.54188C22.1493 1.55924 22.0513 1.65565 22.0513 0.397418C22.0513 -0.1348 21.8572 0.145773 21.5527 0.145773H11.2126Z" fill="#1A1A1A"/>
<path fill-rule="evenodd" clip-rule="evenodd" d="M33.7625 32.9688H34.6341V26.7827L35.3582 28.0689C35.4914 28.2897 35.6027 28.47 35.7292 28.7023C38.3126 33.4402 37.4058 32.7865 40.1414 28.1962C40.2879 27.9493 40.3717 27.7806 40.4858 27.5357C40.7152 27.0478 40.7018 27.0141 40.9882 26.909C40.9559 27.3033 40.8636 27.3573 40.8636 27.7922V32.9688H41.8598V24.7628C40.7199 24.7628 41.072 24.9045 40.3897 26.049C39.9568 26.775 38.1385 30.2807 37.7493 30.5699L34.8596 25.4174C34.4913 24.7078 34.6226 24.7628 33.7625 24.7628V32.9688Z" fill="#1A1A1A"/>
<path fill-rule="evenodd" clip-rule="evenodd" d="M17.4422 29.5595H15.0748V25.646C16.4649 25.646 19.31 25.376 19.31 27.287C19.31 27.9233 19.3594 28.6021 18.7153 29.0832C18.524 29.2259 17.7352 29.5595 17.4422 29.5595ZM14.0776 32.9688H15.0748V30.4437C18.4184 30.4437 17.3432 30.0773 18.9037 32.2447C19.1159 32.5398 19.1539 32.669 19.31 32.9688H20.3071C20.1939 32.4771 19.7619 31.9372 19.4698 31.5438C19.1254 31.0791 18.8656 30.649 18.563 30.1911C18.9551 30.0002 18.8609 30.1467 19.2196 29.8469C21.0988 28.2762 20.7686 24.7628 16.8189 24.7628H14.0776V32.9688Z" fill="#1A1A1A"/>
<path fill-rule="evenodd" clip-rule="evenodd" d="M8.84525 26.0249C9.17066 26.2669 10.5513 29.4785 10.5894 29.9385H7.22577L8.84525 26.0249ZM4.98306 32.9688H5.98025C6.02497 32.4164 6.07635 32.5957 6.39701 31.8764C6.56543 31.4994 6.68246 31.1465 6.85183 30.8226H11.088C11.1945 31.2873 11.7435 32.5542 11.9595 32.9688H12.9567C12.8739 32.6082 12.7198 32.3354 12.558 31.9825L11.1717 28.8441C10.4961 27.4866 10.027 26.0722 9.34384 24.7628H8.4713L5.85655 30.8236C5.66054 31.2218 5.01922 32.5263 4.98306 32.9688Z" fill="#1A1A1A"/>
<path fill-rule="evenodd" clip-rule="evenodd" d="M44.2272 30.0648C44.2272 31.6585 45.5907 32.9688 46.4699 32.9688C47.6935 32.9688 49.2198 33.2369 50.0828 31.8311C51.001 30.3347 50.706 27.2185 50.706 25.1417C50.706 24.7127 50.4872 24.7628 50.0828 24.7628C49.4748 24.7628 49.7088 26.0664 49.7088 26.6564C49.7098 28.1355 50.1903 32.0847 47.9647 32.0847C46.9314 32.0847 46.0512 32.2582 45.4632 31.0848C44.8952 29.9491 45.0997 26.3199 45.0997 24.7628H44.2272V30.0648Z" fill="#1A1A1A"/>
<path fill-rule="evenodd" clip-rule="evenodd" d="M52.4501 26.6564C52.4501 28.0805 52.7042 28.6811 54.7433 29.2558C55.8623 29.5701 57.1839 29.7128 57.1839 30.8226C57.1839 32.4414 54.6672 32.3778 53.6471 31.8812C53.2275 31.6768 52.9031 31.3654 52.4501 31.3268C52.3645 31.699 52.3255 31.7125 52.3255 32.211C52.8288 32.3469 53.5187 32.9688 53.945 32.9688C55.5787 32.9688 56.5274 33.2185 57.5274 32.3054C58.2829 31.6161 58.4808 30.2151 57.5265 29.3387C56.3447 28.254 53.3217 28.523 53.3217 27.0344C53.3217 25.9468 54.552 25.5197 55.1914 25.5197C56.299 25.5197 56.8652 26.0924 57.5579 26.1512C57.6816 25.6836 57.6844 25.9882 57.8071 25.5197C56.8594 24.2094 52.4501 24.3704 52.4501 26.6564Z" fill="#1A1A1A"/>
<path fill-rule="evenodd" clip-rule="evenodd" d="M62.4172 28.6764C62.4172 30.4186 62.952 31.5438 64.2337 32.3903C65.4421 33.1886 65.6904 32.9688 67.5249 32.9688C68.1586 32.9688 69.1282 32.2341 69.3937 31.8321L68.8723 31.2227C67.4831 32.1474 67.8713 32.0847 66.0301 32.0847C64.7494 32.0847 63.4135 30.624 63.4135 29.3069C63.4135 28.174 63.3488 27.5116 64.2641 26.508C65.0672 25.6286 66.9331 25.3943 68.0055 25.916C68.5079 26.1609 68.3042 26.3614 69.0198 26.5301C69.1206 26.1493 69.0179 26.2524 69.3937 26.1512C69.3499 25.6171 68.7895 25.2921 68.3404 25.0723C66.8132 24.328 64.8502 24.6365 63.6894 25.8003C63.0186 26.4723 62.4172 27.3718 62.4172 28.6764Z" fill="#1A1A1A"/>
<path fill-rule="evenodd" clip-rule="evenodd" d="M20.8057 25.646H23.4215V32.9688H24.4186V25.646C26.8145 25.646 27.159 25.8919 27.159 25.1417C27.159 24.5131 25.374 24.7628 24.1693 24.7628C23.0485 24.7628 21.9266 24.7628 20.8057 24.7628C20.6725 25.3404 20.6725 25.0685 20.8057 25.646Z" fill="#1A1A1A"/>
<path fill-rule="evenodd" clip-rule="evenodd" d="M28.1562 31.5794C28.1562 30.6519 28.5929 30.4311 29.277 30.0647L30.9251 31.8041C29.9945 32.4761 30.2685 32.3373 28.9031 32.3373C28.6034 32.3373 28.1562 31.8832 28.1562 31.5794ZM28.7794 28.1711C28.7794 26.7278 31.6777 27.7681 29.8185 28.9723C29.4835 29.1893 29.8137 29.0697 29.4017 29.1806C29.1467 29.008 28.7794 28.5616 28.7794 28.1711ZM28.1562 28.0448C28.1562 29.2134 28.5939 28.9839 28.7794 29.6858C27.7898 29.9539 26.8497 31.4493 27.8051 32.4404C28.5035 33.1655 28.9878 32.9688 30.2742 32.9688C30.4683 32.9688 31.0754 32.4694 31.2705 32.3373C32.1297 32.9206 31.4903 33.0835 32.1202 32.9505C32.8405 32.7981 32.1677 32.2582 31.7691 31.8321C31.8718 31.3847 32.143 30.9489 32.143 30.57C32.143 30.0869 32.1811 30.5237 32.0184 30.191C31.3114 30.2499 31.5645 30.5796 31.2705 31.2005L30.3228 30.2672C30.0982 30.0223 29.9973 29.9298 29.9003 29.5595C31.947 29.0061 30.9374 25.7231 28.6491 27.1559C28.3522 27.3419 28.1562 27.5627 28.1562 28.0448Z" fill="#1A1A1A"/>
<path fill-rule="evenodd" clip-rule="evenodd" d="M59.8006 32.9688H60.6722V24.7628H59.8006V32.9688Z" fill="#1A1A1A"/>
</svg>
