<svg width="24" height="24" viewBox="0 0 24 24" fill="none" xmlns="http://www.w3.org/2000/svg">
<path d="M2.52544 11.2935C2.57137 11.2713 2.61733 11.2502 2.66211 11.2302C3.44061 10.8817 4.22946 10.5554 5.01715 10.229C5.05963 10.229 5.13081 10.1813 5.17099 10.1657C5.23185 10.1402 5.29272 10.1158 5.35358 10.0903C5.4707 10.0414 5.58782 9.9937 5.70379 9.94486C5.93804 9.84829 6.17111 9.75171 6.40535 9.65514L7.80735 9.07462C8.74202 8.68834 9.67786 8.30095 10.6125 7.91467C11.5472 7.52839 12.483 7.141 13.4177 6.75472C14.3523 6.36844 15.2881 5.98106 16.2228 5.59478C17.1575 5.2085 18.0933 4.82111 19.028 4.43483C19.2358 4.34825 19.4609 4.21949 19.6836 4.18175C19.8708 4.14956 20.0533 4.0874 20.2417 4.053C20.5988 3.98751 20.9926 3.96087 21.3348 4.10406C21.453 4.15401 21.5621 4.22394 21.6528 4.31163C22.0869 4.72676 22.026 5.4083 21.9342 5.99216C21.2946 10.0614 20.655 14.1318 20.0143 18.201C19.927 18.7593 19.8076 19.3721 19.3518 19.725C18.966 20.0236 18.4171 20.0569 17.9406 19.9304C17.4641 19.8027 17.0438 19.5352 16.6316 19.2722C14.9219 18.1777 13.211 17.0832 11.5013 15.9888C11.0948 15.729 10.6424 15.3894 10.647 14.9176C10.6493 14.6335 10.8249 14.3804 11.0041 14.1551C12.4899 12.2814 14.6337 10.9938 16.2286 9.20671C16.4536 8.95474 16.6304 8.49964 16.3216 8.35423C16.1379 8.26765 15.9266 8.38531 15.7589 8.49742C13.6507 9.91266 11.5437 11.329 9.43558 12.7443C8.74778 13.206 8.02669 13.6811 7.19766 13.7943C6.45589 13.8964 5.70954 13.6966 4.99189 13.4924C4.39021 13.3215 3.78966 13.1461 3.19143 12.9652C2.87337 12.8697 2.54497 12.7665 2.29924 12.55C2.05352 12.3336 1.91231 11.9695 2.06043 11.6809C2.15344 11.5 2.33371 11.3856 2.52317 11.2924L2.52544 11.2935Z" fill="#1A1A1A"/>
</svg>
