<svg width="24" height="24" viewBox="0 0 24 24" fill="none" xmlns="http://www.w3.org/2000/svg">
<path d="M21 7.08481V10.7043C20.3742 10.6426 19.561 10.4989 18.6615 10.1658C17.4869 9.73063 16.6126 9.13565 16.0399 8.67498V15.9906L16.0253 15.9678C16.0346 16.1128 16.0399 16.2606 16.0399 16.4096C16.0399 20.0426 13.1154 23 9.51997 23C5.92449 23 3 20.0426 3 16.4096C3 12.7767 5.92449 9.81792 9.51997 9.81792C9.87207 9.81792 10.2175 9.84612 10.555 9.90119V13.4683C10.2308 13.3515 9.8827 13.2884 9.51997 13.2884C7.81789 13.2884 6.43205 14.6878 6.43205 16.4096C6.43205 18.1314 7.81789 19.5309 9.51997 19.5309C11.222 19.5309 12.6079 18.1301 12.6079 16.4096C12.6079 16.3452 12.6066 16.2807 12.6026 16.2162V2H16.1808C16.1941 2.30622 16.206 2.61513 16.2193 2.92134C16.2432 3.52437 16.4558 4.10322 16.8265 4.57732C17.261 5.13469 17.9028 5.78204 18.8036 6.29912C19.6474 6.78127 20.4393 6.98945 21 7.08749V7.08481Z" fill="#1A1A1A"/>
</svg>
