<svg width="24" height="24" viewBox="0 0 24 24" fill="none" xmlns="http://www.w3.org/2000/svg">
<path d="M21.8295 8.75301C21.7067 7.56259 21.4424 6.24663 20.4694 5.55506C19.7159 5.01876 18.7254 4.99894 17.8008 5.00004C15.8461 5.00004 13.8904 5.00335 11.9358 5.00445C10.0558 5.00665 8.17574 5.00775 6.29571 5.00995C5.51035 5.00995 4.74693 4.94938 4.01751 5.29076C3.3912 5.58369 2.9009 6.14091 2.60585 6.7609C2.19671 7.62316 2.11116 8.59995 2.0618 9.55361C1.97076 11.2902 1.98064 13.0313 2.08922 14.7668C2.1693 16.0332 2.37221 17.4329 3.34733 18.2401C4.21166 18.9548 5.43137 18.99 6.55237 18.9911C10.1106 18.9944 13.67 18.9977 17.2293 18.9999C17.6856 19.001 18.1616 18.9922 18.6267 18.9416C19.5415 18.8424 20.4135 18.5792 21.0014 17.8987C21.5948 17.2126 21.7473 16.2579 21.8372 15.3538C22.0566 13.1601 22.0544 10.9456 21.8295 8.75301ZM9.87808 15.0752V8.92481L15.1825 11.9994L9.87808 15.0752Z" fill="#1A1A1A"/>
</svg>
