<svg width="124" height="55" viewBox="0 0 124 55" fill="none" xmlns="http://www.w3.org/2000/svg">
<path fill-rule="evenodd" clip-rule="evenodd" d="M105.874 0.874467V22.3352C105.874 22.8188 106.017 22.9667 106.492 22.9667H121.735C121.735 21.3115 121.956 20.6511 121.116 20.6511H108.552V13.2881C108.552 13.0776 108.062 12.446 109.376 12.446H119.88V10.3426H108.552V2.55693H121.116C121.774 -0.327524 120.931 0.242941 120.292 0.242941H106.904C106.55 0.242941 105.874 -0.198969 105.874 0.874467Z" fill="white"/>
<path fill-rule="evenodd" clip-rule="evenodd" d="M70.0326 13.497H63.8532V2.55691C69.1186 2.55691 75.8297 1.45616 76.1506 7.85821C76.3363 11.559 73.6304 13.497 70.0326 13.497ZM61.1757 0.874446V22.9667H63.8532V15.8126C68.1621 15.8126 73.1868 16.5614 76.2639 13.7621C77.0347 13.0599 77.299 12.6967 77.8292 11.784C79.0358 9.7078 78.9587 6.53249 77.8968 4.41293C76.6352 1.89807 73.643 0.24292 70.8569 0.24292H61.7939C61.3188 0.24292 61.1757 0.38915 61.1757 0.874446Z" fill="white"/>
<path fill-rule="evenodd" clip-rule="evenodd" d="M40.166 0.662455V22.9668H55.4084C56.4672 22.9668 55.9575 21.2506 55.8206 20.6512H42.6375V13.0777C42.6375 12.5924 42.7806 12.4462 43.2557 12.4462H53.9674V10.3427H43.2557C42.7806 10.3427 42.6375 10.1964 42.6375 9.71114V2.55704H54.7902C55.7215 2.55704 55.4084 1.24899 55.4084 0.243046H40.9904C40.487 0.243046 40.166 -0.224576 40.166 0.662455Z" fill="white"/>
<path fill-rule="evenodd" clip-rule="evenodd" d="M92.0726 13.497H86.0993V2.55691C91.3081 2.55691 98.4581 1.40313 98.4581 8.02694C98.4581 11.9013 95.886 13.497 92.0726 13.497ZM83.6279 22.9667H86.0993C86.0993 14.8211 85.5314 15.7724 88.1554 15.8077C90.8739 15.8463 93.682 16.0054 95.9048 15.308C98.617 14.4547 100.93 12.0234 100.93 9.07948C100.93 5.53939 100.717 3.80712 97.6967 1.6506C96.6081 0.874449 94.5645 0.24292 93.5152 0.24292H83.6279V22.9667Z" fill="white"/>
<path fill-rule="evenodd" clip-rule="evenodd" d="M14.8302 16.653V17.495C14.8302 19.3302 12.3541 20.8616 10.504 20.8616C7.93033 20.8616 5.43687 20.9339 3.08813 19.1807C2.56899 18.7935 2.40223 18.5171 1.64711 18.3371L0.816483 20.0163C3.11645 23.5114 13.1139 24.8163 16.3405 20.3008C17.5046 18.6697 17.3017 17.659 17.3017 15.8126C17.3017 13.0149 13.3782 11.4465 11.0405 10.8455C9.56957 10.4679 8.0672 10.1112 6.68596 9.61461C1.8123 7.85983 3.88415 2.34642 8.23867 2.34642C14.4244 2.34642 12.9 3.37486 15.6546 4.02889C15.9897 3.3829 16.1737 2.78351 16.4773 2.13591C15.9393 1.76792 16.0746 1.73257 15.3667 1.37743C10.5748 -1.02655 2.83013 -0.509111 1.5071 4.72951C0.1353 10.1642 4.88154 11.882 9.25179 12.8831C11.105 13.3074 14.8302 14.2571 14.8302 16.653Z" fill="white"/>
<path fill-rule="evenodd" clip-rule="evenodd" d="M0 32.4348H124V31.5928H0V32.4348Z" fill="white"/>
<path fill-rule="evenodd" clip-rule="evenodd" d="M18.5382 0.243046C18.5382 3.1966 17.2907 2.55704 26.3647 2.55704V22.9668H28.8377V2.34653C29.6762 2.75791 33.2457 2.54419 34.822 2.5699C36.6201 2.59882 36.4581 2.75951 36.4581 0.662455C36.4581 -0.224576 36.1372 0.243046 35.6338 0.243046H18.5382Z" fill="white"/>
<path fill-rule="evenodd" clip-rule="evenodd" d="M55.8206 54.9478H57.2616V44.6377L58.4588 46.7814C58.679 47.1494 58.8631 47.4499 59.0723 47.8371C63.3435 55.7336 61.8443 54.6441 66.3671 46.9935C66.6094 46.5821 66.7478 46.3009 66.9366 45.8927C67.3157 45.0796 67.2937 45.0234 67.7672 44.8482C67.7137 45.5055 67.5611 45.5955 67.5611 46.3202V54.9478H69.2082V41.2712C67.3236 41.2712 67.9057 41.5074 66.7777 43.4148C66.0619 44.6249 63.0556 50.4677 62.4122 50.9498L57.6345 42.3623C57.0257 41.1796 57.2427 41.2712 55.8206 41.2712V54.9478Z" fill="white"/>
<path fill-rule="evenodd" clip-rule="evenodd" d="M28.8377 49.2658H24.9237V42.7432C27.222 42.7432 31.9258 42.2933 31.9258 45.4782C31.9258 46.5388 32.0076 47.6701 30.9426 48.4719C30.6264 48.7098 29.3222 49.2658 28.8377 49.2658ZM23.275 54.9479H24.9237V50.7393C30.4518 50.7393 28.6741 50.1287 31.2541 53.7411C31.6049 54.2328 31.6678 54.4481 31.9258 54.9479H33.5745C33.3873 54.1284 32.6731 53.2285 32.1901 52.5729C31.6206 51.7983 31.1911 51.0816 30.6909 50.3183C31.339 50.0001 31.1833 50.2444 31.7764 49.7446C34.8834 47.1269 34.3375 41.2712 27.8073 41.2712H23.275V54.9479Z" fill="white"/>
<path fill-rule="evenodd" clip-rule="evenodd" d="M14.6241 43.3747C15.1622 43.7781 17.4448 49.1308 17.5078 49.8973H11.9466L14.6241 43.3747ZM8.23866 54.9479H9.88734C9.96128 54.0271 10.0462 54.326 10.5764 53.1272C10.8548 52.4989 11.0483 51.9108 11.3284 51.3709H18.3321C18.5083 52.1454 19.416 54.2569 19.7731 54.9479H21.4218C21.2849 54.3469 21.0301 53.8921 20.7626 53.304L18.4705 48.0734C17.3536 45.8108 16.578 43.4535 15.4485 41.2712H14.0059L9.68283 51.3725C9.35875 52.0361 8.29844 54.2103 8.23866 54.9479Z" fill="white"/>
<path fill-rule="evenodd" clip-rule="evenodd" d="M73.1223 50.1079C73.1223 52.7641 75.3766 54.948 76.8302 54.948C78.8533 54.948 81.3767 55.3947 82.8035 53.0518C84.3217 50.5578 83.834 45.3642 83.834 41.9028C83.834 41.1877 83.4721 41.2713 82.8035 41.2713C81.7983 41.2713 82.1853 43.4439 82.1853 44.4273C82.1869 46.8924 82.9813 53.4744 79.3017 53.4744C77.5932 53.4744 76.1381 53.7637 75.1658 51.808C74.2267 49.915 74.5649 43.8665 74.5649 41.2713H73.1223V50.1079Z" fill="white"/>
<path fill-rule="evenodd" clip-rule="evenodd" d="M86.7176 44.4272C86.7176 46.8007 87.1376 47.8018 90.5089 48.7595C92.3589 49.2834 94.5441 49.5212 94.5441 51.3708C94.5441 54.0688 90.383 53.9628 88.6966 53.1352C88.0029 52.7945 87.4664 52.2755 86.7176 52.2112C86.576 52.8315 86.5115 52.854 86.5115 53.6848C87.3437 53.9114 88.4842 54.9478 89.189 54.9478C91.8901 54.9478 93.4586 55.364 95.112 53.8423C96.3611 52.6933 96.6883 50.3584 95.1104 48.8977C93.1565 47.0899 88.1586 47.5382 88.1586 45.0571C88.1586 43.2445 90.1927 42.5326 91.2499 42.5326C93.081 42.5326 94.0171 43.4871 95.1623 43.5852C95.3668 42.8058 95.3715 43.3136 95.5745 42.5326C94.0076 40.3488 86.7176 40.6171 86.7176 44.4272Z" fill="white"/>
<path fill-rule="evenodd" clip-rule="evenodd" d="M103.196 47.7938C103.196 50.6976 104.081 52.5729 106.2 53.9838C108.198 55.3143 108.608 54.9479 111.641 54.9479C112.689 54.9479 114.292 53.7235 114.731 53.0534L113.869 52.0378C111.572 53.5788 112.214 53.4744 109.17 53.4744C107.052 53.4744 104.844 51.0399 104.844 48.8448C104.844 46.9566 104.737 45.8527 106.25 44.1798C107.578 42.7143 110.663 42.3238 112.436 43.1932C113.266 43.6013 112.93 43.9356 114.113 44.2168C114.279 43.5821 114.11 43.754 114.731 43.5853C114.659 42.695 113.732 42.1535 112.989 41.7871C110.464 40.5466 107.219 41.0608 105.3 43.0003C104.191 44.1204 103.196 45.6197 103.196 47.7938Z" fill="white"/>
<path fill-rule="evenodd" clip-rule="evenodd" d="M34.3988 42.7432H38.7235V54.9479H40.3721V42.7432C44.3334 42.7432 44.9029 43.153 44.9029 41.9028C44.9029 40.8551 41.9516 41.2713 39.96 41.2713C38.1068 41.2713 36.252 41.2713 34.3988 41.2713C34.1786 42.2338 34.1786 41.7807 34.3988 42.7432Z" fill="white"/>
<path fill-rule="evenodd" clip-rule="evenodd" d="M46.5515 52.6324C46.5515 51.0865 47.2736 50.7185 48.4047 50.1079L51.1294 53.0068C49.5909 54.1268 50.044 53.8954 47.7865 53.8954C47.2909 53.8954 46.5515 53.1386 46.5515 52.6324ZM47.5819 46.9518C47.5819 44.5462 52.3738 46.2801 49.2998 48.2872C48.7461 48.6488 49.292 48.4495 48.6108 48.6343C48.1892 48.3467 47.5819 47.6026 47.5819 46.9518ZM46.5515 46.7413C46.5515 48.6889 47.2752 48.3065 47.5819 49.4763C45.9459 49.9231 44.3916 52.4154 45.971 54.0674C47.1257 55.2758 47.9265 54.948 50.0534 54.948C50.3743 54.948 51.378 54.1156 51.7005 53.8954C53.1211 54.8676 52.0639 55.1392 53.1053 54.9174C54.2962 54.6635 53.184 53.7636 52.5248 53.0534C52.6947 52.3078 53.1431 51.5814 53.1431 50.9499C53.1431 50.1448 53.206 50.8728 52.937 50.3184C51.7681 50.4164 52.1866 50.966 51.7005 52.0008L50.1336 50.4453C49.7624 50.0371 49.5956 49.8829 49.4351 49.2658C52.819 48.3434 51.1499 42.8718 47.3664 45.2597C46.8756 45.5699 46.5515 45.9378 46.5515 46.7413Z" fill="white"/>
<path fill-rule="evenodd" clip-rule="evenodd" d="M98.8703 54.9479H100.311V41.2712H98.8703V54.9479Z" fill="white"/>
</svg>
